<svg xmlns="http://www.w3.org/2000/svg" viewBox="0 0 446.48 485.45"><defs><style>.cls-1,.cls-2{font-size:140px;font-family:Graphik-Thin, Graphik;}.cls-1,.cls-10,.cls-11,.cls-12,.cls-13,.cls-14,.cls-15,.cls-16,.cls-17,.cls-18,.cls-19,.cls-2,.cls-8,.cls-9{fill:#231f20;}.cls-2{letter-spacing:-0.09em;}.cls-3{letter-spacing:0em;}.cls-4{letter-spacing:-0.02em;}.cls-5{letter-spacing:0em;}.cls-6{fill:#ec5840;}.cls-7{fill:#fff;}.cls-8{font-size:39px;}.cls-10,.cls-11,.cls-12,.cls-13,.cls-14,.cls-15,.cls-16,.cls-17,.cls-18,.cls-19,.cls-8,.cls-9{font-family:Graphik-Light, Graphik;}.cls-9{font-size:39px;}.cls-10{font-size:39px;}.cls-11{font-size:39px;}.cls-12{font-size:39px;}.cls-13{font-size:39px;}.cls-14{font-size:39px;}.cls-15{font-size:39px;}.cls-16{font-size:39px;}.cls-17{font-size:39px;}.cls-18{font-size:39px;}.cls-19{font-size:39px;}</style></defs><title>listening</title><g id="Max"><text class="cls-1" transform="translate(0 120.05)">Max</text><text class="cls-1" transform="translate(0 288.05)">Quinn</text><text class="cls-2" transform="translate(0 456.05)">T<tspan class="cls-3" x="65.52" y="0">apa</tspan><tspan class="cls-4" x="292.88" y="0">r</tspan><tspan class="cls-5" x="334.46" y="0">a</tspan></text></g><g id="Cirlge"><path class="cls-6" d="M250,462.5c117.91,0,213.5-95.59,213.5-213.5S367.91,35.5,250,35.5,36.5,131.09,36.5,249,132.09,462.5,250,462.5" transform="translate(-17.02 -7.38)"/><path class="cls-7" d="M250,260.5A11.5,11.5,0,1,0,238.5,249,11.5,11.5,0,0,0,250,260.5" transform="translate(-17.02 -7.38)"/></g><g id="currently"><text class="cls-8" transform="translate(62.38 200.29) rotate(-71.09)">C</text><text class="cls-9" transform="translate(72.05 172.83) rotate(-62.79)">u</text><text class="cls-10" transform="matrix(0.55, -0.84, 0.84, 0.55, 82.83, 152.16)">r</text><text class="cls-9" transform="matrix(0.62, -0.79, 0.79, 0.62, 90.78, 140.17)">r</text><text class="cls-11" transform="matrix(0.69, -0.72, 0.72, 0.69, 98.97, 129.37)">e</text><text class="cls-12" transform="matrix(0.78, -0.63, 0.63, 0.78, 114.38, 113.07)">n</text><text class="cls-13" transform="matrix(0.84, -0.54, 0.54, 0.84, 132.79, 98.6)">t</text><text class="cls-14" transform="matrix(0.88, -0.48, 0.48, 0.88, 144.58, 91.18)">l</text><text class="cls-11" transform="matrix(0.92, -0.4, 0.4, 0.92, 152.74, 86.37)">y</text><text class="cls-11" transform="translate(171.75 78.35) rotate(-18.45)"> </text><text class="cls-11" transform="matrix(0.97, -0.23, 0.23, 0.97, 181.56, 74.81)">L</text><text class="cls-12" transform="translate(202.54 70.19) rotate(-7.52)">i</text><text class="cls-12" transform="translate(211.84 68.78) rotate(-3.09)">s</text><text class="cls-15" transform="translate(230.78 67.9) rotate(2.09)">t</text><text class="cls-14" transform="translate(244.51 68.17) rotate(8.72)">e</text><text class="cls-10" transform="translate(266.67 71.56) rotate(16.01)">n</text><text class="cls-14" transform="translate(289.13 78.31) rotate(21.76)">i</text><text class="cls-8" transform="matrix(0.89, 0.46, -0.46, 0.89, 298.06, 81.47)">n</text><text class="cls-15" transform="translate(318.95 92.28) rotate(35.1)">g</text><text class="cls-16" transform="matrix(0.75, 0.66, -0.66, 0.75, 338.99, 106.81)"> </text><text class="cls-17" transform="matrix(0.68, 0.74, -0.74, 0.68, 347.14, 113.32)">C</text><text class="cls-18" transform="translate(366.68 134.86) rotate(56.31)">u</text><text class="cls-11" transform="matrix(0.47, 0.88, -0.88, 0.47, 379.51, 154.44)">r</text><text class="cls-8" transform="matrix(0.4, 0.92, -0.92, 0.4, 386.18, 167.09)">r</text><text class="cls-10" transform="translate(391.78 179.41) rotate(72.18)">e</text><text class="cls-17" transform="matrix(0.18, 0.98, -0.98, 0.18, 398.58, 200.76)">n</text><text class="cls-8" transform="matrix(0.08, 1, -1, 0.08, 402.4, 223.92)">t</text><text class="cls-18" transform="matrix(0.01, 1, -1, 0.01, 403.45, 237.88)">l</text><text class="cls-18" transform="matrix(-0.07, 1, -1, -0.07, 403.75, 247.24)">y</text><text class="cls-8" transform="translate(402.08 267.88) rotate(99.08)"> </text><text class="cls-18" transform="translate(400.63 278.1) rotate(104.02)">L</text><text class="cls-8" transform="translate(395.13 298.86) rotate(108.91)">i</text><text class="cls-11" transform="matrix(-0.4, 0.92, -0.92, -0.4, 392.22, 307.88)">s</text><text class="cls-9" transform="matrix(-0.49, 0.87, -0.87, -0.49, 384.56, 325.17)">t</text><text class="cls-14" transform="matrix(-0.57, 0.82, -0.82, -0.57, 378.03, 337.22)">e</text><text class="cls-11" transform="translate(365.22 355.69) rotate(132.24)">n</text><text class="cls-16" transform="matrix(-0.74, 0.67, -0.67, -0.74, 349.05, 372.82)">i</text><text class="cls-19" transform="matrix(-0.8, 0.6, -0.6, -0.8, 342.37, 379.41)">n</text><text class="cls-15" transform="translate(323.51 393.6) rotate(150.87)">g</text><text class="cls-10" transform="translate(301.84 405.21) rotate(157.24)"> </text><text class="cls-8" transform="matrix(-0.96, 0.28, -0.28, -0.96, 292.36, 409.7)">C</text><text class="cls-12" transform="translate(264.35 417.7) rotate(172.48)">u</text><text class="cls-11" transform="translate(241.21 420.55) rotate(179.13)">r</text><text class="cls-8" transform="translate(226.83 420.8) rotate(-176.43)">r</text><text class="cls-9" transform="matrix(-0.99, -0.16, 0.16, -0.99, 213.32, 420.08)">e</text><text class="cls-18" transform="translate(191.15 416.53) rotate(-162.55)">n</text><text class="cls-16" transform="matrix(-0.91, -0.41, 0.41, -0.91, 168.87, 409.35)">t</text><text class="cls-8" transform="matrix(-0.89, -0.46, 0.46, -0.89, 156.14, 403.6)">l</text><text class="cls-11" transform="matrix(-0.85, -0.53, 0.53, -0.85, 147.67, 399.35)">y</text><text class="cls-10" transform="matrix(-0.79, -0.61, 0.61, -0.79, 130.42, 388.2)"> </text><text class="cls-13" transform="translate(121.97 381.97) rotate(-137.34)">L</text><text class="cls-11" transform="matrix(-0.67, -0.74, 0.74, -0.67, 106.46, 367.22)">i</text><text class="cls-13" transform="translate(100.09 360.28) rotate(-127.79)">s</text><text class="cls-8" transform="matrix(-0.53, -0.85, 0.85, -0.53, 88.57, 345.27)">t</text><text class="cls-9" transform="translate(81 333.73) rotate(-116.14)">e</text><text class="cls-14" transform="translate(71.14 313.62) rotate(-109.21)">n</text><text class="cls-16" transform="matrix(-0.24, -0.97, 0.97, -0.24, 63.77, 291.27)">i</text><text class="cls-19" transform="translate(61.26 282.19) rotate(-98.67)">n</text><text class="cls-18" transform="matrix(-0.01, -1, 1, -0.01, 57.78, 258.82)">g</text></g></svg>